#!OML:ASF E:\emotionWalksFemale\Project 1\Capture day 1\Session 1\Female1.ASF
:FULLY-SPECIFIED
:DEGREES
472
root 9.90004 15.3986 -7.36246 177.293 -6.0472 -177.797
lowerback 6.85931 2.3545 2.27429
upperback -4.01526 3.29991 -0.510818
thorax -7.91733 1.45261 -2.25488
lowerneck -6.27814 -4.81966 -9.65745
upperneck 17.816 -7.96353 9.46468
head 7.21771 -4.06308 3.97484
rclavicle 4.55714e-014 -5.96354e-015
rhumerus -35.4604 12.1465 -87.303
rradius 32.4818
rwrist 16.788
rhand -0.874187 -54.6547
rfingers 7.12502
rthumb 24.7528 -83.0731
lclavicle 4.55714e-014 -5.96354e-015
lhumerus -45.4082 7.94739 72.2533
lradius 36.7053
lwrist -6.26259
lhand -11.2332 -33.4649
lfingers 7.12502
lthumb 14.7958 -4.01307
rfemur 6.53339 20.8693 36.9339
rtibia 14.8096
rfoot -20.1538 -34.6216
rtoes 7.71661
lfemur -25.2913 -1.41754 -19.6048
ltibia 64.3353
lfoot -13.2679 1.8518
ltoes -25.0776
473
root 9.89878 15.3879 -7.47188 177.436 -5.63214 -177.565
lowerback 6.79943 2.45817 2.66685
upperback -4.07142 3.47965 -0.45669
thorax -7.91495 1.51919 -2.43875
lowerneck -5.97671 -4.78851 -9.73462
upperneck 17.3599 -7.88632 9.54976
head 7.0154 -4.02456 4.02958
rclavicle -2.82771e-014 -4.77083e-015
rhumerus -35.2669 12.7333 -87.6793
rradius 32.7284
rwrist 16.4726
rhand -0.580694 -54.8737
rfingers 7.12502
rthumb 25.0341 -83.2532
lclavicle -2.82771e-014 -4.77083e-015
lhumerus -46.3665 6.81893 72.853
lradius 38.1301
lwrist -5.65023
lhand -11.0909 -32.7095
lfingers 7.12502
lthumb 14.9329 -3.26777
rfemur 7.21669 21.1289 37.3775
rtibia 14.076
rfoot -19.4324 -34.7947
rtoes 5.51012
lfemur -26.1916 -1.61273 -19.5047
ltibia 63.101
lfoot -13.9017 2.36484
ltoes -26.7991
474
root 9.89892 15.376 -7.55295 177.797 -5.1326 -176.582
lowerback 6.98004 2.55283 3.78643
upperback -4.27285 3.74463 -0.184963
thorax -8.17469 1.58076 -2.82749
lowerneck -5.70506 -4.72606 -9.80961
upperneck 16.8703 -7.74164 9.57528
head 6.7995 -3.95368 4.06978
rclavicle -5.12864e-014 2.78299e-015
rhumerus -35.1249 13.2918 -87.9837
rradius 33.2836
rwrist 15.932
rhand -0.332336 -55.1059
rfingers 7.12502
rthumb 25.272 -83.452
lclavicle -5.12864e-014 2.78299e-015
lhumerus -45.5264 7.45749 72.6946
lradius 36.4917
lwrist -6.96174
lhand -11.1805 -33.0711
lfingers 7.12502
lthumb 14.8466 -3.62301
rfemur 7.35598 21.1738 38.3707
rtibia 13.2833
rfoot -18.4034 -34.6363
rtoes 3.84353
lfemur -27.7391 -1.74603 -18.4666
ltibia 61.8713
lfoot -13.7121 2.68877
ltoes -26.043
475
root 9.89375 15.3767 -7.66894 177.823 -4.76216 -176.7
lowerback 6.88279 2.62411 3.82312
upperback -4.17211 3.83941 -0.20057
thorax -7.99876 1.63287 -2.86744
lowerneck -5.80081 -4.6918 -9.76757
upperneck 16.7942 -7.63881 9.43027
head 6.77497 -3.90212 4.02261
rclavicle 2.75317e-014 2.38542e-015
rhumerus -34.9322 13.778 -88.307
rradius 33.7794
rwrist 15.4692
rhand 0.086378 -55.1301
rfingers 7.12502
rthumb 25.6731 -83.4189
lclavicle 2.75317e-014 2.38542e-015
lhumerus -45.7241 7.14201 73.0224
lradius 36.7621
lwrist -7.19532
lhand -10.9905 -32.7202
lfingers 7.12502
lthumb 15.0296 -3.28569
rfemur 8.29266 20.8054 38.3374
rtibia 12.3748
rfoot -17.1245 -34.351
rtoes 0.241292
lfemur -28.234 -2.21022 -18.7367
ltibia 60.2822
lfoot -13.679 3.10656
ltoes -22.2293
476
root 9.8888 15.3753 -7.78636 177.956 -4.38966 -176.78
lowerback 6.6021 2.70411 3.9028
upperback -4.07957 3.93839 -0.236501
thorax -7.72055 1.68664 -2.94167
lowerneck -5.6282 -4.58152 -9.94057
upperneck 16.4705 -7.4886 9.71547
head 6.64204 -3.82008 4.16229
rclavicle 7.45443e-015 4.37326e-015
rhumerus -34.6332 14.1258 -88.6163
rradius 34.137
rwrist 15.1956
rhand 0.147638 -55.0167
rfingers 7.12502
rthumb 25.7318 -83.297
lclavicle 7.45443e-015 4.37326e-015
lhumerus -45.9137 6.97316 73.1935
lradius 37.0733
lwrist -7.89355
lhand -10.443 -32.3612
lfingers 7.12502
lthumb 15.557 -2.96696
rfemur 9.2446 20.5489 38.3235
rtibia 11.1926
rfoot -15.3178 -34.1227
rtoes -4.5653
lfemur -28.7477 -2.68836 -18.9325
ltibia 58.5921
lfoot -13.7936 3.57012
ltoes -19.1583
477
root 9.88622 15.3731 -7.90594 178.018 -3.95904 -176.846
lowerback 6.45788 2.79872 3.95034
upperback -4.0932 4.05969 -0.263755
thorax -7.6371 1.74448 -3.00274
lowerneck -6.10252 -4.64495 -9.63687
upperneck 17.0372 -7.53887 9.18849
head 6.88233 -3.85449 3.92456
rclavicle 4.28878e-014 1.59028e-015
rhumerus -34.6592 14.5021 -89.0677
rradius 34.5815
rwrist 14.7664
rhand -0.343117 -54.9232
rfingers 7.12502
rthumb 25.2617 -83.2708
lclavicle 4.28878e-014 1.59028e-015
lhumerus -46.2357 6.74406 73.2707
lradius 37.1597
lwrist -8.87288
lhand -9.94923 -32.1402
lfingers 7.12502
lthumb 16.0325 -2.7836
rfemur 10.3584 20.2758 38.3645
rtibia 9.86269
rfoot -14.3721 -33.6179
rtoes -6.03308
lfemur -29.096 -3.08688 -19.0684
ltibia 56.7024
lfoot -14.5092 4.31927
ltoes -22.9123
478
root 9.88306 15.3739 -8.02092 178.058 -3.51938 -176.768
lowerback 6.4843 2.88205 4.12256
upperback -4.17495 4.19042 -0.22141
thorax -7.7224 1.79463 -3.07403
lowerneck -5.34508 -4.42448 -9.87125
upperneck 16.4494 -7.27686 9.51752
head 6.5531 -3.73999 4.11104
rclavicle -1.17283e-014 1.03368e-014
rhumerus -34.8123 15.1017 -89.5786
rradius 34.9628
rwrist 14.0782
rhand -0.765282 -54.6323
rfingers 7.12502
rthumb 24.8572 -83.0364
lclavicle -1.17283e-014 1.03368e-014
lhumerus -46.5411 6.49038 73.4851
lradius 36.9679
lwrist -9.59372
lhand -9.9416 -32.3153
lfingers 7.12502
lthumb 16.0399 -2.95929
rfemur 11.6556 20.0015 38.5197
rtibia 8.11905
rfoot -13.6766 -32.9466
rtoes -5.41436
lfemur -29.4461 -3.50499 -19.0108
ltibia 54.7781
lfoot -14.7782 4.99221
ltoes -25.5043
479
root 9.87585 15.3774 -8.13671 178.164 -3.20418 -176.713
lowerback 6.48668 2.93176 4.3359
upperback -4.18829 4.27795 -0.2135
thorax -7.71767 1.82554 -3.19522
lowerneck -5.0481 -4.31247 -10.0716
upperneck 15.9647 -7.11443 9.81829
head 6.34741 -3.65342 4.26228
rclavicle -2.56929e-014 -6.75868e-015
rhumerus -34.6816 15.5281 -89.9101
rradius 35.2749
rwrist 13.6982
rhand -0.721277 -54.2326
rfingers 7.12502
rthumb 24.8993 -82.6308
lclavicle -2.56929e-014 -6.75868e-015
lhumerus -46.3196 6.45898 73.7312
lradius 36.3135
lwrist -10.1463
lhand -9.8322 -32.3979
lfingers 7.12502
lthumb 16.1452 -3.05037
rfemur 13.3009 19.6347 38.5698
rtibia 5.52343
rfoot -12.7195 -32.1686
rtoes -4.05848
lfemur -29.8011 -4.09739 -18.9737
ltibia 52.8128
lfoot -15.0864 5.61855
ltoes -24.7621
480
root 9.86886 15.3817 -8.26044 178.251 -2.96917 -176.764
lowerback 6.40259 2.96135 4.42045
upperback -4.1928 4.31723 -0.266478
thorax -7.66054 1.84038 -3.29705
lowerneck -5.13722 -4.30903 -9.7849
upperneck 15.9375 -7.08217 9.58507
head 6.33358 -3.63093 4.13902
rclavicle 8.64713e-015 -1.31198e-014
rhumerus -34.5945 15.652 -90.2415
rradius 35.6418
rwrist 13.9171
rhand 0.275216 -54.4527
rfingers 7.12502
rthumb 25.854 -82.7153
lclavicle 8.64713e-015 -1.31198e-014
lhumerus -46.3127 6.14071 74.0445
lradius 36.0697
lwrist -10.3615
lhand -9.39328 -31.7069
lfingers 7.12502
lthumb 16.5678 -2.39419
rfemur 16.4671 19.1804 38.4953
rtibia 4.77083e-015
rfoot -10.3405 -31.2711
rtoes -2.05182
lfemur -30.0439 -4.83586 -19.0217
ltibia 50.8273
lfoot -15.5011 6.20575
ltoes -22.1697
481
root 9.86623 15.3803 -8.37837 178.36 -2.69551 -176.747
lowerback 6.40693 3.01566 4.48189
upperback -4.32609 4.39267 -0.283102
thorax -7.79487 1.86395 -3.36279
lowerneck -4.93711 -4.2414 -9.48364
upperneck 15.8447 -7.00288 9.39384
head 6.24403 -3.59571 4.03704
rclavicle 6.21202e-015 -9.14409e-015
rhumerus -34.8715 15.703 -90.698
rradius 36.0994
rwrist 14.2461
rhand 0.965897 -54.3831
rfingers 7.12502
rthumb 26.5152 -82.5477
lclavicle 6.21202e-015 -9.14409e-015
lhumerus -46.7272 5.62223 74.426
lradius 36.1503
lwrist -10.5023
lhand -9.29178 -31.2736
lfingers 7.12502
lthumb 16.6656 -1.96908
rfemur 16.8228 18.7653 38.5464
rtibia -7.95139e-015
rfoot -10.3352 -30.9453
rtoes -2.93426
lfemur -30.3332 -5.57087 -18.9229
ltibia 48.8227
lfoot -15.361 7.18938
ltoes -25.6407
482
root 9.86318 15.3754 -8.49448 178.417 -2.32277 -176.63
lowerback 6.43542 3.07937 4.64246
upperback -4.4036 4.49572 -0.251388
thorax -7.87768 1.90023 -3.43549
lowerneck -5.01037 -4.21729 -9.18356
upperneck 15.9815 -6.94161 8.99815
head 6.27097 -3.57374 3.86235
rclavicle 4.05024e-014 5.1684e-015
rhumerus -35.1046 15.633 -91.0732
rradius 36.5906
rwrist 14.4063
rhand 0.930043 -53.4115
rfingers 7.12502
rthumb 26.4809 -81.5812
lclavicle 4.05024e-014 5.1684e-015
lhumerus -46.8792 5.32258 74.7624
lradius 35.8527
lwrist -10.7321
lhand -9.33898 -31.6422
lfingers 7.12502
lthumb 16.6201 -2.33385
rfemur 17.2348 18.4315 38.6985
rtibia 3.18055e-015
rfoot -10.1643 -30.453
rtoes -5.12339
lfemur -30.5904 -6.24824 -18.6662
ltibia 46.7829
lfoot -14.984 8.14024
ltoes -25.4784
